/* XPM */
static char *dummy[]={
"32 32 6 1",
"# c #000000",
"c c #006040",
"b c #00ffff",
"a c #606040",
"d c #a0a080",
". c None",
"................................",
"............################....",
"............#aaaaaaaaaaa#bb#a...",
"............#aaaaaaaaaa#bbc#ad..",
"............#aaaaaaaaa#bbcc#ad..",
".........##.#aaaaaaaa#bbccc#ad..",
".........#c##aaaaaaa#bbcccc#ad..",
".........#bc#aaaaaa#bbccccc#ad..",
".........#bbc#aaaaa#bbccccc#ad..",
".........#bbbc#aaaa#bbccccc#ad..",
"..########b.bbc#aaa#bbccccc#ad..",
".#bbbbbbbbbb.bbc#aa#bbccccc#ad..",
".#bb..........bbc#a#bbccccc#ad..",
".#bbbbbbbbbbbbbcc#a#bbccccc#ad..",
".#ccccccccbbbbcc#aa#bbccccc#ad..",
"..########bbbcc#aaa#bbc##cc#ad..",
"...dddddd#bbcc#aaaa#bb#.#cc#ad..",
"....ddddd#bcc#aaaaa#bb#a#cc#ad..",
".........#cc#aaaaaa#bbc##cc#ad..",
".........#c##aaaaaa#bbccccc#ad..",
".........##d#aaaaaa#bbccccc#ad..",
".........#dd#aaaaaa#bbccccc#ad..",
"..........d.########bbccccc#ad..",
"............#..dd..#bbccccc#ad..",
"............#dd...d#bbccccc#ad..",
"#############...dd.#bbccccc#####",
"d...dd...dd...dd...#bbcccc#..dd.",
"..dd...dd...dd...dd#bbccc#.dd...",
"dd...dd...dd...dd..#bbcc#dd...dd",
"...dd...dd...dd...d#bbc#d...dd..",
"..d...dd...dd...dd.#bb#...dd....",
"....dd...dd...dd...###..dd......"};
